<svg width="320" height="260" viewBox="0 0 320 260" fill="none" xmlns="http://www.w3.org/2000/svg">
  <rect x="4" y="4" width="312" height="252" rx="14" fill="#F3F1EB" fill-opacity="0.06" stroke="#F3F1EB" stroke-opacity="0.16" />

  <rect x="4" y="4" width="312" height="32" rx="14" fill="#F3F1EB" fill-opacity="0.08" />
  <circle cx="22" cy="20" r="4" fill="#D9A64E" />
  <circle cx="36" cy="20" r="4" fill="#F3F1EB" fill-opacity="0.35" />
  <circle cx="50" cy="20" r="4" fill="#F3F1EB" fill-opacity="0.35" />
  <rect x="120" y="15" width="80" height="10" rx="5" fill="#F3F1EB" fill-opacity="0.25" />

  <rect x="24" y="56" width="270" height="40" rx="8" fill="#F3F1EB" fill-opacity="0.1" />
  <circle cx="42" cy="76" r="9" fill="#D9A64E" fill-opacity="0.9" />
  <path d="M38 76l3 3 6-6" stroke="#1D2B45" stroke-width="1.6" stroke-linecap="round" stroke-linejoin="round" />
  <rect x="60" y="68" width="120" height="8" rx="4" fill="#F3F1EB" fill-opacity="0.45" />
  <rect x="60" y="82" width="80" height="6" rx="3" fill="#F3F1EB" fill-opacity="0.22" />
  <rect x="252" y="70" width="32" height="14" rx="7" fill="#2f7d4f" fill-opacity="0.55" />

  <rect x="24" y="108" width="270" height="40" rx="8" fill="#F3F1EB" fill-opacity="0.1" />
  <circle cx="42" cy="128" r="9" fill="#F3F1EB" fill-opacity="0.3" />
  <rect x="60" y="120" width="140" height="8" rx="4" fill="#F3F1EB" fill-opacity="0.45" />
  <rect x="60" y="134" width="90" height="6" rx="3" fill="#F3F1EB" fill-opacity="0.22" />
  <rect x="252" y="122" width="32" height="14" rx="7" fill="#c97a22" fill-opacity="0.55" />

  <rect x="24" y="160" width="270" height="40" rx="8" fill="#F3F1EB" fill-opacity="0.1" />
  <circle cx="42" cy="180" r="9" fill="#D9A64E" fill-opacity="0.9" />
  <path d="M38 180l3 3 6-6" stroke="#1D2B45" stroke-width="1.6" stroke-linecap="round" stroke-linejoin="round" />
  <rect x="60" y="172" width="100" height="8" rx="4" fill="#F3F1EB" fill-opacity="0.45" />
  <rect x="60" y="186" width="70" height="6" rx="3" fill="#F3F1EB" fill-opacity="0.22" />
  <rect x="252" y="174" width="32" height="14" rx="7" fill="#2f7d4f" fill-opacity="0.55" />

  <rect x="24" y="212" width="130" height="26" rx="7" fill="#D9A64E" />
  <rect x="164" y="212" width="130" height="26" rx="7" fill="#F3F1EB" fill-opacity="0.12" />
</svg>
